<svg width="32" height="32" viewBox="0 0 32 32" fill="none" xmlns="http://www.w3.org/2000/svg">
<path d="M15.9998 22C21.1545 22 25.3332 17.8214 25.3332 12.6667C25.3332 7.51205 21.1545 3.33337 15.9998 3.33337C10.8452 3.33337 6.6665 7.51205 6.6665 12.6667C6.6665 17.8214 10.8452 22 15.9998 22Z" stroke="white" stroke-width="2.66667" stroke-linecap="round" stroke-linejoin="round"/>
<path d="M16 16.6667C18.2091 16.6667 20 14.8759 20 12.6667C20 10.4576 18.2091 8.66675 16 8.66675C13.7909 8.66675 12 10.4576 12 12.6667C12 14.8759 13.7909 16.6667 16 16.6667Z" stroke="white" stroke-width="2.66667" stroke-linecap="round" stroke-linejoin="round"/>
<path d="M11.333 20.6667L7.33301 28.6667H24.6663L20.6663 20.6667" stroke="white" stroke-width="2.66667" stroke-linecap="round" stroke-linejoin="round"/>
</svg>
