<svg width="32" height="32" viewBox="0 0 32 32" fill="none" xmlns="http://www.w3.org/2000/svg">
<path d="M7.99984 25.3333H15.9998V24H7.99984V25.3333ZM7.99984 13.3333H15.9998V11.3333H7.99984V13.3333ZM7.99984 10H15.9998V8H7.99984V10ZM21.3332 14.6667V12H23.9998V9.33333H21.3332V6.66667H25.3332L26.6665 8V9.33333H30.6665V12H26.6665V13.3333L25.3332 14.6667H21.3332ZM15.9998 21.3333H13.3332V14.6667H18.6665V6.66667H7.99984C7.2665 6.66667 6.63895 6.928 6.11717 7.45067C5.59539 7.97333 5.33406 8.60089 5.33317 9.33333V12C5.33317 12.7333 5.5945 13.3613 6.11717 13.884C6.63984 14.4067 7.26739 14.6676 7.99984 14.6667H10.6665V21.3333H7.99984V17.3333C6.53317 17.3333 5.27762 16.8111 4.23317 15.7667C3.18873 14.7222 2.6665 13.4667 2.6665 12V9.33333C2.6665 7.86667 3.18873 6.61111 4.23317 5.56667C5.27762 4.52222 6.53317 4 7.99984 4H21.3332V17.3333H15.9998V21.3333ZM5.33317 28V21.3333H18.6665V28H5.33317Z" fill="white"/>
</svg>
