<svg width="36" height="36" viewBox="0 0 36 36" fill="none" xmlns="http://www.w3.org/2000/svg">
<path d="M12.7479 6.81601C11.0079 6.88301 9.43492 7.50401 8.59392 8.34601C8.50101 8.43885 8.39072 8.51249 8.26935 8.56271C8.14799 8.61293 8.01792 8.63876 7.88657 8.63871C7.75522 8.63866 7.62517 8.61275 7.50383 8.56244C7.3825 8.51213 7.27227 8.43842 7.17942 8.34551C7.08658 8.2526 7.01294 8.14231 6.96272 8.02094C6.9125 7.89957 6.88667 7.7695 6.88672 7.63815C6.88677 7.50681 6.91268 7.37675 6.96299 7.25542C7.0133 7.13409 7.08701 7.02385 7.17992 6.93101C8.47692 5.63401 10.5889 4.89801 12.6699 4.81701C14.7649 4.73601 17.0519 5.30901 18.6539 6.91101C18.8414 7.09865 18.9467 7.35309 18.9466 7.61836C18.9465 7.88363 18.8411 8.138 18.6534 8.32551C18.4658 8.51301 18.2113 8.6183 17.9461 8.61821C17.6808 8.61812 17.4264 8.51265 17.2389 8.32501C16.1489 7.23401 14.4749 6.74801 12.7479 6.81501V6.81601Z" fill="white"/>
<path fill-rule="evenodd" clip-rule="evenodd" d="M21.384 22.936C19.0409 24.9188 16.0695 26.0047 13 26C5.82 26 0 20.18 0 13C0 5.82 5.82 0 13 0C20.18 0 26 5.82 26 13C26 16.195 24.848 19.12 22.936 21.384L25.144 21L35.428 31.284C36.191 32.047 36.191 33.284 35.428 34.046L34.046 35.428C33.283 36.191 32.046 36.191 31.284 35.428L21 25.144L21.384 22.936ZM24 13C24 19.075 19.075 24 13 24C6.925 24 2 19.075 2 13C2 6.925 6.925 2 13 2C19.075 2 24 6.925 24 13ZM31.249 29.933L24.464 23.148L23.344 23.343L23.148 24.464L29.953 31.269L31.249 29.933ZM31.367 32.683L32.665 33.981L33.981 32.665L32.663 31.347L31.367 32.683Z" fill="white"/>
</svg>
