<svg width="32" height="32" viewBox="0 0 32 32" fill="none" xmlns="http://www.w3.org/2000/svg">
<path d="M20 17.3333V18.6667C20 22.4373 20 24.324 21.172 25.4947C22.3427 26.6667 24.2294 26.6667 28 26.6667M27.588 24V29.3333M12 14.44L11.284 14.5187C10.212 14.6387 9.67604 14.6973 9.24937 14.652C7.1667 14.4253 5.52404 12.5787 5.34404 10.26C5.3067 9.78533 5.3667 9.19067 5.48537 8M18.2547 9.33333H18.268M22.6667 9.33333H28.6667" stroke="white" stroke-width="2" stroke-linecap="round" stroke-linejoin="round"/>
<path d="M2.9949 5.63196C2.6989 4.43596 2.5509 3.83863 2.77623 3.39329C2.85224 3.24215 2.95631 3.10686 3.0829 2.99463C3.45757 2.66663 4.0669 2.66663 5.28957 2.66663H22.0736C26.0829 2.66663 29.3336 5.94929 29.3336 9.99996C29.3336 14.0506 26.0829 17.3333 22.0722 17.3333H15.7402C14.6522 17.3333 14.1082 17.3333 13.6416 17.1466C13.2812 17.002 12.9567 16.7804 12.6909 16.4973C12.3456 16.128 12.1442 15.6173 11.7402 14.5986L11.0229 12.7893C10.6096 11.7426 10.4016 11.22 10.0189 10.832C9.6349 10.4453 9.11757 10.236 8.08157 9.81863L5.82557 8.90663C4.85623 8.51463 4.37223 8.31996 4.00823 7.97329C3.88076 7.8525 3.76554 7.71941 3.66423 7.57596C3.3749 7.16529 3.24823 6.65463 2.9949 5.63196Z" stroke="white" stroke-width="2" stroke-linecap="round" stroke-linejoin="round"/>
</svg>
