<svg width="32" height="32" viewBox="0 0 32 32" fill="none" xmlns="http://www.w3.org/2000/svg">
<path d="M10.866 4.608C9.67166 5.43544 8.69594 6.54034 8.02257 7.82785C7.34921 9.11536 6.99831 10.547 7 12C7 15.196 8.664 18.004 11.18 19.604C12.216 20.26 13.038 21.45 12.984 22.884V22.9L12.656 29.574C12.6497 29.7731 12.6039 29.9689 12.5211 30.15C12.4384 30.3312 12.3204 30.494 12.174 30.6291C12.0277 30.7642 11.8559 30.8687 11.6687 30.9367C11.4815 31.0047 11.2827 31.0347 11.0837 31.025C10.8848 31.0153 10.6898 30.9661 10.5101 30.8803C10.3304 30.7944 10.1696 30.6736 10.0371 30.525C9.90455 30.3763 9.80295 30.2027 9.73821 30.0144C9.67347 29.8261 9.64688 29.6267 9.66 29.428L9.986 22.768C9.99 22.598 9.886 22.336 9.572 22.136C7.86445 21.0528 6.45831 19.5557 5.48418 17.7836C4.51005 16.0116 3.99952 14.0221 4 12C4.00027 10.0677 4.46717 8.16396 5.36102 6.45078C6.25487 4.7376 7.54922 3.26562 9.134 2.16C9.61852 1.81059 10.1974 1.61595 10.7946 1.60168C11.3918 1.5874 11.9793 1.75414 12.48 2.08C13.404 2.672 14 3.734 14 4.926V10.566C14 10.73 14.082 10.886 14.22 10.978L15.72 11.998C15.8027 12.0539 15.9002 12.0838 16 12.0838C16.0998 12.0838 16.1973 12.0539 16.28 11.998L17.78 10.978C17.8477 10.9322 17.9032 10.8706 17.9415 10.7984C17.9799 10.7262 18 10.6457 18 10.564V4.926C18 3.734 18.596 2.672 19.52 2.08C20.0207 1.75414 20.6082 1.5874 21.2054 1.60168C21.8026 1.61595 22.3815 1.81059 22.866 2.16C24.4508 3.26562 25.7451 4.7376 26.639 6.45078C27.5328 8.16396 27.9997 10.0677 28 12C28.0005 14.0221 27.4899 16.0116 26.5158 17.7836C25.5417 19.5557 24.1356 21.0528 22.428 22.136C22.114 22.336 22.01 22.596 22.014 22.766L22.34 29.426C22.3559 29.6909 22.3014 29.9552 22.1821 30.1922C22.0628 30.4292 21.8829 30.6304 21.6607 30.7754C21.4385 30.9204 21.1819 31.0041 20.9169 31.0179C20.652 31.0317 20.3881 30.9751 20.152 30.854C19.9159 30.7314 19.7167 30.5483 19.5747 30.3234C19.4327 30.0985 19.3531 29.8398 19.344 29.574L19.016 22.884C18.962 21.45 19.784 20.26 20.82 19.604C22.1011 18.7915 23.1561 17.6684 23.8869 16.339C24.6177 15.0096 25.0006 13.517 25 12C25.0017 10.547 24.6508 9.11536 23.9774 7.82785C23.3041 6.54034 22.3283 5.43544 21.134 4.608C21.086 4.642 21 4.742 21 4.928V10.564C21.0001 11.1352 20.8603 11.6978 20.5929 12.2026C20.3255 12.7074 19.9386 13.1391 19.466 13.46L17.966 14.48C17.386 14.8738 16.7011 15.0843 16 15.0843C15.2989 15.0843 14.614 14.8738 14.034 14.48L12.534 13.46C12.0614 13.1391 11.6745 12.7074 11.4071 12.2026C11.1397 11.6978 10.9999 11.1352 11 10.564V4.926C11 4.742 10.914 4.642 10.866 4.608Z" fill="white"/>
</svg>
